{"title":"Beyond the Rocks (1922)","uid":7493208,"size":1413439499,"categoryP":"video","categoryS":"movies","magnet":"?xt=urn:btih:02a5c15ab3dd3eed5a4a3200acef9a32af4ceec1&amp;dn=Beyond+the+Rocks+%281922%29&amp;tr=udp%3A%2F%2Ftracker.openbittorrent.com%3A80&amp;tr=udp%3A%2F%2Fopen.demonii.com%3A1337&amp;tr=udp%3A%2F%2Ftracker.coppersurfer.tk%3A6969&amp;tr=udp%3A%2F%2Fexodus.desync.com%3A6969","seeders":2,"leechers":0,"uploader":"ravisugar","files":-1,"time":1343807723,"description":"Beyond the Rocks (1922)\n\nA young woman marries an older millionaire \nand then falls in love with a handsome nobleman on her honeymoon. \n\n\nDirector:\nSam Wood\nWriters:\nElinor Glyn (novel), Jack Cunningham (scenario)\nStars:\nRudolph Valentino, Gloria Swanson and Edythe Chapman\n &lt;a href=&quot;\nhttp://www.imdb.com/title/tt0012938/&quot; rel=&quot;nofollow&quot; target=&quot;_NEW&quot;&gt;\nhttp://www.imdb.com/title/tt0012938/&lt;/a&gt;\n\nFormat                           : AVI\nFormat/Info                      : Audio Video Interleave\nFormat profile                   : OpenDML\nFile size                        : 1.32 GiB\nDuration                         : 1h 20mn\nOverall bit rate                 : 2 340 Kbps\n\nFormat                           : MPEG-4 Visual\nFormat profile                   : Simple@L3\nFormat settings, BVOP            : No\nFormat settings, QPel            : No\nFormat settings, GMC             : No warppoints\nFormat settings, Matrix          : Default\nCodec ID                         : XVID\nCodec ID/Hint                    : XviD\nDuration                         : 1h 20mn\nBit rate                         : 2 205 Kbps\nWidth                            : 720 pixels\nHeight                           : 480 pixels\nDisplay aspect ratio             : 1.500\nFrame rate                       : 29.970 fps\nStandard                         : NTSC\nResolution                       : 24 bits\nColorimetry                      : 4:2:0\nScan type                        : Progressive\nBits/(Pixel*Frame)               : 0.213\nStream size                      : 1.24 GiB (94%)\nWriting library                  : ZJMedia MPEG Encoder\n\nFormat                           : MPEG Audio\nFormat version                   : Version 1\nFormat profile                   : Layer 3\nCodec ID                         : 55\nCodec ID/Hint                    : MP3\nDuration                         : 1h 20mn\nBit rate mode                    : Constant\nBit rate                         : 128 Kbps\nChannel(s)                       : 2 channels\nSampling rate                    : 44.1 KHz\nResolution                       : 16 bits\nStream size                      : 73.7 MiB (5%)\nAlignment                        : Split accross interleaves\nInterleave, duration             : 968 ms (29.00 video frames)\n","torrent":{"xt":"urn:btih:02a5c15ab3dd3eed5a4a3200acef9a32af4ceec1","amp;dn":"Beyond+the+Rocks+%281922%29","amp;tr":["udp%3A%2F%2Ftracker.openbittorrent.com%3A80","udp%3A%2F%2Fopen.demonii.com%3A1337","udp%3A%2F%2Ftracker.coppersurfer.tk%3A6969","udp%3A%2F%2Fexodus.desync.com%3A6969"],"infoHash":"02a5c15ab3dd3eed5a4a3200acef9a32af4ceec1","infoHashBuffer":{"type":"Buffer","data":[2,165,193,90,179,221,62,237,90,74,50,0,172,239,154,50,175,76,238,193]},"announce":[],"urlList":[]}}